<svg width="100%" height="100%" viewBox="0 0 24 24"><path fill="currentColor" fill-rule="evenodd" d="M16.59 3c2.23 0 3.037.232 3.852.668a4.543 4.543 0 0 1 1.89 1.89c.436.815.668 1.623.668 3.852v5.18c0 2.23-.232 3.037-.668 3.852a4.543 4.543 0 0 1-1.89 1.89c-.815.436-1.623.668-3.852.668H7.41c-2.23 0-3.037-.232-3.852-.668a4.543 4.543 0 0 1-1.89-1.89C1.232 17.627 1 16.82 1 14.59V9.41c0-2.23.232-3.037.668-3.852a4.543 4.543 0 0 1 1.89-1.89C4.373 3.232 5.18 3 7.41 3h9.18zM6.846 5c-1.337 0-1.822.14-2.311.4A2.726 2.726 0 0 0 3.4 6.536C3.139 7.024 3 7.509 3 8.845v6.31c0 1.336.14 1.821.4 2.31.262.49.646.873 1.135 1.134.489.262.974.401 2.31.401H12V5zm10.308 0H14v14h3.154c1.254 0 1.758-.122 2.22-.353l.091-.048a2.726 2.726 0 0 0 1.134-1.134c.262-.489.401-.974.401-2.31v-6.31c0-1.336-.14-1.821-.4-2.31A2.726 2.726 0 0 0 19.464 5.4c-.489-.262-.974-.401-2.31-.401zM19 13a1 1 0 0 1 0 2h-3a1 1 0 0 1 0-2h3zm0-4a1 1 0 0 1 0 2h-3a1 1 0 0 1 0-2h3z"></path></svg>