<svg width="100%" height="100%" viewBox="0 0 24 24"><path fill="currentColor" fill-rule="evenodd" d="M11 11a6 6 0 0 1 6 6v3.625c0 .76-.616 1.375-1.375 1.375h-9.25C5.615 22 5 21.384 5 20.625V17a6 6 0 0 1 6-6zm0 2a4 4 0 0 0-4 4v2.5a.5.5 0 0 0 .5.5h7a.5.5 0 0 0 .5-.5V17a4 4 0 0 0-4-4zm0-11a4 4 0 1 1 0 8 4 4 0 0 1 0-8zm9-1c.552 0 1 .453 1 .997V4h2.003c.511 0 .933.383.99.883L24 5c0 .552-.453 1-.997 1H21v2.003a.995.995 0 0 1-.883.99L20 9c-.552 0-1-.453-1-.997V6h-2.003A.996.996 0 0 1 16 5c0-.552.453-1 .997-1H19V1.997c0-.511.383-.933.883-.99L20 1zm-9 3a2 2 0 1 0 0 4 2 2 0 0 0 0-4z"></path></svg>