<svg width="100%" height="100%" viewBox="0 0 24 24"><path fill="currentColor" fill-rule="evenodd" d="M4.684 12c.594 0 .967.093 1.293.267.326.174.582.43.756.756.174.326.267.699.267 1.293v4.368c0 .594-.093.967-.267 1.293-.174.326-.43.582-.756.756-.326.174-.699.267-1.293.267h-.368c-.594 0-.967-.093-1.293-.267a1.817 1.817 0 0 1-.756-.756C2.093 19.65 2 19.278 2 18.684v-4.368c0-.594.093-.967.267-1.293.174-.326.43-.582.756-.756.326-.174.699-.267 1.293-.267h.368zm7-4c.594 0 .967.093 1.293.267.326.174.582.43.756.756.174.326.267.699.267 1.293v8.368c0 .594-.093.967-.267 1.293-.174.326-.43.582-.756.756-.326.174-.699.267-1.293.267h-.368c-.594 0-.967-.093-1.293-.267a1.817 1.817 0 0 1-.756-.756C9.093 19.65 9 19.278 9 18.684v-8.368c0-.594.093-.967.267-1.293.174-.326.43-.582.756-.756.326-.174.699-.267 1.293-.267h.368zm7-6c.594 0 .967.093 1.293.267.326.174.582.43.756.756.174.326.267.699.267 1.293v14.368c0 .594-.093.967-.267 1.293-.174.326-.43.582-.756.756-.326.174-.699.267-1.293.267h-.368c-.594 0-.967-.093-1.293-.267a1.817 1.817 0 0 1-.756-.756c-.174-.326-.267-.699-.267-1.293V4.316c0-.594.093-.967.267-1.293.174-.326.43-.582.756-.756.326-.174.699-.267 1.293-.267h.368z"></path></svg>