<svg width="100%" height="100%" viewBox="0 0 24 24"><path fill="currentColor" fill-rule="evenodd" d="M12 7c1.657 0 3 1.26 3 2.813v9.374C15 20.741 13.657 22 12 22H5c-1.657 0-3-1.26-3-2.813V9.813C2 8.26 3.343 7 5 7h7zm0 2H5c-.552 0-1 .41-1 .917v9.166c0 .507.448.917 1 .917h7c.552 0 1-.41 1-.917V9.917C13 9.41 12.552 9 12 9zm7-7c1.657 0 3 1.26 3 2.813v9.375C22 15.74 20.657 17 19 17h-3v-2h3c.552 0 1-.41 1-.917V4.917C20 4.41 19.552 4 19 4h-7c-.552 0-1 .41-1 .917V6H9V4.812C9 3.26 10.343 2 12 2h7z"></path></svg>