<svg width="100%" height="100%" viewBox="0 0 24 24"><path fill="currentColor" fill-rule="evenodd" d="M12 5a7 7 0 0 1 4 12.745V20a3.001 3.001 0 0 1-2 2.829V23a1 1 0 0 1-1 1h-2a1 1 0 0 1-1-1v-.17A3.001 3.001 0 0 1 8 20v-2.255A7 7 0 0 1 12 5zm2 14h-4v1a1 1 0 0 0 1 1h2a1 1 0 0 0 1-1v-1zm-7.657-1.343a1 1 0 0 1 0 1.414L4.93 20.485a1 1 0 1 1-1.414-1.414l1.414-1.414a1 1 0 0 1 1.414 0zm12.728 0l1.414 1.414a1 1 0 0 1-1.414 1.414l-1.414-1.414a1 1 0 0 1 1.414-1.414zM12 7a5 5 0 0 0-2.5 9.332l.5.289V18h4v-1.38l.5-.288A5 5 0 0 0 12 7zm-9 4a1 1 0 0 1 0 2H1a1 1 0 0 1 0-2h2zm20 0a1 1 0 0 1 0 2h-2a1 1 0 0 1 0-2h2zm-2.515-7.485a1 1 0 0 1 0 1.414l-1.414 1.414a1 1 0 0 1-1.414-1.414l1.414-1.414a1 1 0 0 1 1.414 0zm-15.556 0l1.414 1.414A1 1 0 0 1 4.93 6.343L3.515 4.93a1 1 0 1 1 1.414-1.414zM12 0a1 1 0 0 1 1 1v2a1 1 0 0 1-2 0V1a1 1 0 0 1 1-1z"></path></svg>