<svg width="100%" height="100%" viewBox="0 0 24 24"><path fill="currentColor" fill-rule="evenodd" d="M10 3v2H5.886a1 1 0 0 0-.986.83l-.012.111L4.53 12h1.851a2 2 0 0 1 1.71.964l.079.142L9.618 16h4.764l1.447-2.894a2 2 0 0 1 1.628-1.1l.161-.006h1.851l-.357-6.059a1 1 0 0 0-.886-.935L18.114 5H14V3h4.114a3 3 0 0 1 2.98 2.65l.015.174.765 13a3 3 0 0 1-2.643 3.155l-.176.016-.176.005H5.12a3 3 0 0 1-3-3l.001-.088.004-.088.765-13a3 3 0 0 1 2.82-2.819L5.885 3H10zM6.382 14H4.413l-.291 4.97.006.147a1 1 0 0 0 .876.876l.117.007H18.88l.059-.002a1 1 0 0 0 .94-.94v-.117L19.585 14h-1.968l-1.447 2.894a2 2 0 0 1-1.628 1.1l-.161.006H9.618a2 2 0 0 1-1.71-.964l-.079-.142L6.382 14zM12 1a1 1 0 0 1 .993.883L13 2v7.584l1.293-1.291a1 1 0 0 1 1.32-.083l.094.083a1 1 0 0 1 .083 1.32l-.083.094L12 13.414l-.7-.7-3.007-3.007a1 1 0 0 1 1.32-1.497l.094.083L11 9.584V2a1 1 0 0 1 1-1z"></path></svg>