<svg width="100%" height="100%" viewBox="0 0 24 24"><path fill="currentColor" fill-rule="evenodd" d="M10 21h4a2 2 0 0 1-3.995.15L10 21h4zm2-17c3.314 0 6.206 2.678 6.46 5.986l.386 5.011c.085 1.106.958 2.405 1.951 2.902l.76.38a.88.88 0 0 1 .443.729v.484c0 .28-.225.508-.494.508H2.494A.497.497 0 0 1 2 19.492v-.484c0-.28.197-.606.443-.73l.76-.38c.992-.496 1.866-1.792 1.951-2.9l.386-5.012C5.794 6.68 8.693 4 12 4zm0 2c-2.264 0-4.292 1.878-4.466 4.14l-.386 5.01c-.075.983-.49 1.998-1.114 2.85h11.933c-.624-.852-1.04-1.867-1.115-2.85l-.386-5.01C16.292 7.874 14.27 6 12 6zm0-5c.552 0 1 .444 1 1v1.082a6.187 6.187 0 0 0-.663-.073L12 3l-.225.004c-.261.01-.52.036-.775.078V2c0-.513.383-.936.883-.993L12 1z"></path></svg>