<svg width="100%" height="100%" viewBox="0 0 24 24"><path fill="currentColor" fill-rule="evenodd" d="M14.01 0c.507 0 .926.383.983.883L15 1a1 1 0 0 1-.99 1H13v1.047c5.33.504 9.5 4.992 9.5 10.453C22.5 19.299 17.799 24 12 24S1.5 19.299 1.5 13.5c0-5.462 4.17-9.95 9.5-10.453V2H9.99A.993.993 0 0 1 9 1a1 1 0 0 1 .99-1h4.02zM12 5a8.5 8.5 0 1 0 0 17 8.5 8.5 0 0 0 0-17zm0 7a1.5 1.5 0 1 1 0 3 1.5 1.5 0 0 1 0-3zm0-6c.552 0 1 .438 1 1.003v4.205A2.492 2.492 0 0 0 12 11c-.356 0-.694.074-1 .208V7.003A.999.999 0 0 1 12 6z"></path></svg>