<svg width="100%" height="100%" viewBox="0 0 20 20"><g fill="none" fill-rule="evenodd"><circle cx="10" cy="10" r="10" fill="currentColor"></circle><path fill="#FFF" d="M14 8l-.505 7.071a1 1 0 0 1-.998.929H7.503a1 1 0 0 1-.998-.929L6 8h8zM8.5 9c-.276 0-.5.198-.5.441v4.118c0 .243.224.441.5.441s.5-.198.5-.441V9.44C9 9.198 8.776 9 8.5 9zm3 0c-.276 0-.5.198-.5.441v4.118c0 .243.224.441.5.441s.5-.198.5-.441V9.44c0-.243-.224-.441-.5-.441zm-.034-4c.304 0 .55.221.55.5V6h2.432c.305 0 .552.222.552.5 0 .276-.247.5-.552.5H5.552C5.247 7 5 6.778 5 6.5c0-.276.247-.5.552-.5h2.443v-.5c0-.276.25-.5.55-.5h2.92z"></path></g></svg>